{
  "source": "C:\\Users\\Peter\\Desktop\\stuff\\MIUN\\quantitative_research\\video_compression\\videos\\BVI-HD\\BVI-HD_CDVL_videos\\ORIG\\FishAndRock_1920x1080_30fps.mp4",
  "output": "C:\\Users\\Peter\\Desktop\\stuff\\MIUN\\quantitative_research\\video_compression\\compressed_videos\\BVI-HD\\h264\\1.5\\FishAndRock_1920x1080_30fps_h264.mp4",
  "codec": "h264",
  "ok": "Input #0, mov,mp4,m4a,3gp,3g2,mj2, from 'C:\\Users\\Peter\\Desktop\\stuff\\MIUN\\quantitative_research\\video_compression\\videos\\BVI-HD\\BVI-HD_CDVL_videos\\ORIG\\FishAndRock_1920x1080_30fps.mp4':\n  Metadata:\n    major_brand     : isom\n    minor_version   : 512\n    compatible_brands: isomiso2avc1mp41\n    encoder         : Lavf54.28.101\n  Duration: 00:00:05.00, start: 0.000000, bitrate: 251564 kb/s\n  Stream #0:0[0x1](und): Video: h264 (High 4:4:4 Predictive) (avc1 / 0x31637661), yuv420p(progressive), 1920x1080, 251561 kb/s, 30 fps, 30 tbr, 30 tbn (default)\n    Metadata:\n      handler_name    : VideoHandler\n      vendor_id       : [0][0][0][0]\n[out#0/mp4 @ 00000225fbc21640] Codec AVOption b:a (set bitrate (in bits/s)) has not been used for any stream. The most likely reason is either wrong type (e.g. a video option with no video streams) or that it is a private option of some decoder which was not actually used for any stream.\nStream mapping:\n  Stream #0:0 -> #0:0 (h264 (native) -> h264 (libx264))\nPress [q] to stop, [?] for help\n[libx264 @ 00000225fc6f00c0] using cpu capabilities: MMX2 SSE2Fast SSSE3 SSE4.2 AVX FMA3 BMI2 AVX2\n[libx264 @ 00000225fc6f00c0] profile High, level 5.0, 4:2:0, 8-bit\n[libx264 @ 00000225fc6f00c0] 264 - core 165 r3222 b35605a - H.264/MPEG-4 AVC codec - Copyleft 2003-2025 - http://www.videolan.org/x264.html - options: cabac=1 ref=5 deblock=1:0:0 analyse=0x3:0x113 me=hex subme=8 psy=1 psy_rd=1.00:0.00 mixed_ref=1 me_range=16 chroma_me=1 trellis=2 8x8dct=1 cqm=0 deadzone=21,11 fast_pskip=1 chroma_qp_offset=-2 threads=18 lookahead_threads=3 sliced_threads=0 nr=0 decimate=1 interlaced=0 bluray_compat=0 constrained_intra=0 bframes=3 b_pyramid=2 b_adapt=1 b_bias=0 direct=3 weightb=1 open_gop=0 weightp=2 keyint=250 keyint_min=25 scenecut=40 intra_refresh=0 rc_lookahead=50 rc=cbr mbtree=1 bitrate=1500 ratetol=1.0 qcomp=0.60 qpmin=0 qpmax=69 qpstep=4 vbv_maxrate=1500 vbv_bufsize=1500 nal_hrd=none filler=0 ip_ratio=1.40 aq=1:1.00\nOutput #0, mp4, to 'C:\\Users\\Peter\\Desktop\\stuff\\MIUN\\quantitative_research\\video_compression\\compressed_videos\\BVI-HD\\h264\\1.5\\FishAndRock_1920x1080_30fps_h264.mp4':\n  Metadata:\n    major_brand     : isom\n    minor_version   : 512\n    compatible_brands: isomiso2avc1mp41\n    encoder         : Lavf62.3.100\n  Stream #0:0(und): Video: h264 (avc1 / 0x31637661), yuv420p(tv, progressive), 1920x1080, q=2-31, 1500 kb/s, 30 fps, 15360 tbn (default)\n    Metadata:\n      encoder         : Lavc62.11.100 libx264\n      handler_name    : VideoHandler\n      vendor_id       : [0][0][0][0]\n    Side data:\n      cpb: bitrate max/min/avg: 1500000/0/1500000 buffer size: 1500000 vbv_delay: N/A\nframe=    0 fps=0.0 q=0.0 size=       0KiB time=N/A bitrate=N/A speed=N/A elapsed=0:00:00.52    \nframe=    0 fps=0.0 q=0.0 size=       0KiB time=N/A bitrate=N/A speed=N/A elapsed=0:00:01.13    \nframe=    0 fps=0.0 q=0.0 size=       0KiB time=N/A bitrate=N/A speed=N/A elapsed=0:00:01.70    \nframe=    7 fps=3.1 q=43.0 size=       0KiB time=00:00:00.03 bitrate=  11.5kbits/s speed=0.0149x elapsed=0:00:02.24    \nframe=   30 fps= 10 q=40.0 size=       0KiB time=00:00:00.76 bitrate=   0.5kbits/s speed=0.268x elapsed=0:00:02.86    \nframe=   54 fps= 15 q=40.0 size=       0KiB time=00:00:01.60 bitrate=   0.2kbits/s speed=0.458x elapsed=0:00:03.49    \nframe=   81 fps= 20 q=40.0 size=     256KiB time=00:00:02.63 bitrate= 796.5kbits/s speed=0.643x elapsed=0:00:04.09    \nframe=  106 fps= 23 q=40.0 size=     512KiB time=00:00:03.46 bitrate=1210.0kbits/s speed=0.745x elapsed=0:00:04.65    \nframe=  136 fps= 26 q=-1.0 size=     512KiB time=00:00:04.46 bitrate= 939.1kbits/s speed=0.86x elapsed=0:00:05.19    \n[mp4 @ 00000225fbc19980] Starting second pass: moving the moov atom to the beginning of the file\n[out#0/mp4 @ 00000225fbc21640] video:767KiB audio:0KiB subtitle:0KiB other streams:0KiB global headers:0KiB muxing overhead: 0.334544%\nframe=  150 fps= 28 q=-1.0 Lsize=     769KiB time=00:00:04.93 bitrate=1277.6kbits/s speed=0.917x elapsed=0:00:05.37    \n[libx264 @ 00000225fc6f00c0] frame I:1     Avg QP:37.24  size: 36131\n[libx264 @ 00000225fc6f00c0] frame P:39    Avg QP:36.63  size: 11479\n[libx264 @ 00000225fc6f00c0] frame B:110   Avg QP:41.02  size:  2733\n[libx264 @ 00000225fc6f00c0] consecutive B-frames:  1.3%  0.0%  8.0% 90.7%\n[libx264 @ 00000225fc6f00c0] mb I  I16..4: 21.9% 73.9%  4.2%\n[libx264 @ 00000225fc6f00c0] mb P  I16..4:  0.7%  1.8%  0.0%  P16..4: 43.7%  3.3%  3.7%  0.0%  0.0%    skip:46.8%\n[libx264 @ 00000225fc6f00c0] mb B  I16..4:  0.0%  0.0%  0.0%  B16..8: 31.6%  0.4%  0.0%  direct: 0.1%  skip:68.0%  L0:35.0% L1:64.8% BI: 0.2%\n[libx264 @ 00000225fc6f00c0] 8x8 transform intra:73.0% inter:92.0%\n[libx264 @ 00000225fc6f00c0] direct mvs  spatial:92.7% temporal:7.3%\n[libx264 @ 00000225fc6f00c0] coded y,uvDC,uvAC intra: 38.3% 26.0% 1.0% inter: 2.7% 1.9% 0.0%\n[libx264 @ 00000225fc6f00c0] i16 v,h,dc,p: 29% 36%  9% 26%\n[libx264 @ 00000225fc6f00c0] i8 v,h,dc,ddl,ddr,vr,hd,vl,hu:  7%  4% 21%  9% 15% 11% 16%  7% 10%\n[libx264 @ 00000225fc6f00c0] i4 v,h,dc,ddl,ddr,vr,hd,vl,hu:  2%  3%  1% 12% 19% 12% 22%  8% 21%\n[libx264 @ 00000225fc6f00c0] i8c dc,h,v,p: 79% 15%  4%  2%\n[libx264 @ 00000225fc6f00c0] Weighted P-Frames: Y:35.9% UV:15.4%\n[libx264 @ 00000225fc6f00c0] ref P L0: 68.7% 17.2%  9.4%  2.4%  1.8%  0.5%  0.0%\n[libx264 @ 00000225fc6f00c0] ref B L0: 96.0%  3.0%  0.7%  0.2%\n[libx264 @ 00000225fc6f00c0] ref B L1: 98.6%  1.4%\n[libx264 @ 00000225fc6f00c0] kb/s:1255.18\n",
  "seconds": 5.813109636306763,
  "probe_out": {}
}